<svg width="720" height="1080" viewBox="0 0 720 1080" fill="none" xmlns="http://www.w3.org/2000/svg">
  <defs>
    <linearGradient id="bgWall" x1="360" y1="120" x2="360" y2="980" gradientUnits="userSpaceOnUse">
      <stop offset="0" stop-color="#C4D9D6"/>
      <stop offset="0.65" stop-color="#768A84"/>
      <stop offset="1" stop-color="#293431"/>
    </linearGradient>
    <linearGradient id="floorShade" x1="360" y1="798" x2="360" y2="1080" gradientUnits="userSpaceOnUse">
      <stop offset="0" stop-color="#0E1317" stop-opacity="0"/>
      <stop offset="1" stop-color="#0C0F12"/>
    </linearGradient>
  </defs>
  <rect width="720" height="1080" fill="#163B3C"/>
  <rect x="44" y="134" width="632" height="778" fill="url(#bgWall)" stroke="#E0C050" stroke-width="4"/>
  <g opacity="0.28" stroke="#5B6D67" stroke-width="2">
    <path d="M118 136V912"/>
    <path d="M230 136V912"/>
    <path d="M342 136V912"/>
    <path d="M454 136V912"/>
    <path d="M566 136V912"/>
  </g>
  <g opacity="0.5" stroke="#F1F0E4" stroke-width="3">
    <path d="M60 250H660"/>
    <path d="M60 376H660"/>
    <path d="M60 502H660"/>
    <path d="M60 628H660"/>
    <path d="M60 754H660"/>
  </g>
  <rect x="82" y="172" width="170" height="92" fill="#E6F2F2" opacity="0.78"/>
  <rect x="291" y="194" width="150" height="108" fill="#EEE6D3" opacity="0.78"/>
  <rect x="468" y="186" width="132" height="250" fill="#262429"/>
  <rect x="490" y="208" width="88" height="12" fill="#A6F0CA"/>
  <g fill="#FFD45C">
    <circle cx="506" cy="252" r="6"/>
    <circle cx="506" cy="286" r="6"/>
    <circle cx="506" cy="320" r="6"/>
    <circle cx="506" cy="354" r="6"/>
    <circle cx="506" cy="388" r="6"/>
  </g>
  <g stroke="#9C968C" stroke-width="4">
    <path d="M530 252H570"/>
    <path d="M530 286H584"/>
    <path d="M530 320H576"/>
    <path d="M530 354H580"/>
    <path d="M530 388H566"/>
  </g>
  <g fill="#D43F34">
    <rect x="150" y="198" width="30" height="64"/>
    <rect x="132" y="216" width="66" height="28"/>
  </g>
  <text x="158" y="228" fill="#132A30" font-size="26" font-family="Arial, sans-serif" font-weight="800" text-anchor="middle">SUS</text>
  <rect x="338" y="246" width="44" height="44" fill="#61C8F6"/>
  <rect x="324" y="260" width="72" height="16" fill="#61C8F6"/>
  <text x="360" y="168" fill="#F3E7BD" font-size="16" font-family="Arial, sans-serif" font-weight="700" text-anchor="middle" letter-spacing="4">HOSPITAL REGIONAL ZILDA ARNS</text>
  <text x="360" y="198" fill="#112C42" font-size="40" font-family="Arial, sans-serif" font-weight="800" text-anchor="middle">PRONTO ATENDIMENTO</text>
  <text x="360" y="228" fill="#112C42" font-size="22" font-family="Arial, sans-serif" font-weight="700" text-anchor="middle">MATERNIDADE | CLINICA MEDICA | URGENCIA</text>
  <rect x="254" y="844" width="212" height="34" rx="17" fill="#101113" opacity="0.72"/>
  <rect x="0" y="798" width="720" height="282" fill="url(#floorShade)"/>
</svg>
