<svg width="1600" height="1040" viewBox="0 0 1600 1040" fill="none" xmlns="http://www.w3.org/2000/svg">
  <defs>
    <linearGradient id="sky" x1="800" y1="0" x2="800" y2="1040" gradientUnits="userSpaceOnUse">
      <stop offset="0" stop-color="#86AEDF"/>
      <stop offset="0.45" stop-color="#6D8EB8"/>
      <stop offset="1" stop-color="#202A35"/>
    </linearGradient>
    <linearGradient id="ground" x1="800" y1="650" x2="800" y2="1040" gradientUnits="userSpaceOnUse">
      <stop offset="0" stop-color="#2D2B2A"/>
      <stop offset="1" stop-color="#090B0E"/>
    </linearGradient>
    <linearGradient id="buildingBody" x1="800" y1="160" x2="800" y2="660" gradientUnits="userSpaceOnUse">
      <stop offset="0" stop-color="#E5EEF4"/>
      <stop offset="1" stop-color="#AFC0CD"/>
    </linearGradient>
    <linearGradient id="glass" x1="800" y1="270" x2="800" y2="650" gradientUnits="userSpaceOnUse">
      <stop offset="0" stop-color="#294E73"/>
      <stop offset="1" stop-color="#1B2A3B"/>
    </linearGradient>
    <linearGradient id="awning" x1="800" y1="475" x2="800" y2="690" gradientUnits="userSpaceOnUse">
      <stop offset="0" stop-color="#2D3037"/>
      <stop offset="1" stop-color="#17191E"/>
    </linearGradient>
    <radialGradient id="glow" cx="0" cy="0" r="1" gradientUnits="userSpaceOnUse" gradientTransform="translate(790 504) rotate(90) scale(224 480)">
      <stop offset="0" stop-color="#FFD86C" stop-opacity="0.28"/>
      <stop offset="1" stop-color="#FFD86C" stop-opacity="0"/>
    </radialGradient>
  </defs>
  <rect width="1600" height="1040" fill="url(#sky)"/>
  <g opacity="0.18" fill="#F6FBFF">
    <ellipse cx="144" cy="116" rx="148" ry="54"/>
    <ellipse cx="334" cy="98" rx="204" ry="64"/>
    <ellipse cx="702" cy="102" rx="176" ry="58"/>
    <ellipse cx="906" cy="120" rx="166" ry="54"/>
    <ellipse cx="1150" cy="110" rx="184" ry="62"/>
    <ellipse cx="1360" cy="146" rx="160" ry="52"/>
  </g>
  <rect y="652" width="1600" height="388" fill="url(#ground)"/>
  <g opacity="0.22" stroke="#6D6B63" stroke-width="4">
    <path d="M0 850L222 824"/>
    <path d="M274 892L456 864"/>
    <path d="M544 876L728 846"/>
    <path d="M820 892L1032 862"/>
    <path d="M1088 872L1298 850"/>
    <path d="M1372 886L1558 862"/>
  </g>
  <g opacity="0.28">
    <path d="M1230 114L1402 18L1578 110" stroke="#2E6C31" stroke-width="10"/>
    <path d="M1454 0V156" stroke="#74543E" stroke-width="18"/>
    <path d="M1310 78H1590" stroke="#2E6C31" stroke-width="10"/>
    <path d="M1450 8L1452 156" stroke="#2E6C31" stroke-width="10"/>
  </g>
  <rect x="344" y="166" width="996" height="432" rx="10" fill="url(#buildingBody)"/>
  <rect x="410" y="214" width="868" height="128" fill="#D9E3EB"/>
  <rect x="330" y="354" width="942" height="252" fill="#2A4465"/>
  <rect x="466" y="420" width="670" height="164" fill="url(#glass)"/>
  <rect x="1114" y="360" width="190" height="92" fill="#497647"/>
  <rect x="1170" y="332" width="118" height="56" fill="#87A64A"/>
  <rect x="390" y="612" width="820" height="58" fill="#7C807F"/>
  <rect x="0" y="760" width="1600" height="280" fill="url(#ground)"/>
  <rect x="634" y="380" width="316" height="66" rx="4" fill="#A53B2D"/>
  <text x="792" y="424" fill="#F4E9D5" font-size="36" font-family="Arial, sans-serif" font-weight="700" text-anchor="middle">EMERGENCIA</text>
  <g fill="#233244">
    <text x="800" y="294" font-size="70" font-family="Arial, sans-serif" font-weight="800" text-anchor="middle">HOSPITAL REGIONAL</text>
    <text x="800" y="348" font-size="58" font-family="Arial, sans-serif" font-weight="800" text-anchor="middle">ZILDA ARNS</text>
  </g>
  <g fill="#233244" opacity="0.95">
    <text x="1084" y="250" font-size="34" font-family="Arial, sans-serif" font-weight="800">GOVERNO DO PARANA</text>
    <text x="1090" y="290" font-size="24" font-family="Arial, sans-serif" font-weight="700">SECRETARIA DE ESTADO DA SAUDE</text>
  </g>
  <g>
    <rect x="1142" y="402" width="230" height="54" fill="#A33B30"/>
    <rect x="1142" y="464" width="230" height="54" fill="#2B4C77"/>
    <rect x="1142" y="526" width="230" height="54" fill="#396A47"/>
    <rect x="1142" y="588" width="230" height="54" fill="#353B45"/>
    <text x="1188" y="438" fill="#EADCC8" font-size="20" font-family="Arial, sans-serif" font-weight="800">&lt;</text>
    <text x="1220" y="438" fill="#EADCC8" font-size="24" font-family="Arial, sans-serif" font-weight="700">EMERGENCIA</text>
    <text x="1188" y="500" fill="#D6CCBF" font-size="20" font-family="Arial, sans-serif" font-weight="800">&lt;</text>
    <text x="1220" y="500" fill="#D6CCBF" font-size="24" font-family="Arial, sans-serif" font-weight="700">AMBULATORIO</text>
    <text x="1188" y="562" fill="#D9D0C3" font-size="20" font-family="Arial, sans-serif" font-weight="800">&lt;</text>
    <text x="1220" y="562" fill="#D9D0C3" font-size="24" font-family="Arial, sans-serif" font-weight="700">VISITANTES</text>
    <text x="1188" y="624" fill="#D9D0C3" font-size="20" font-family="Arial, sans-serif" font-weight="800">&lt;</text>
    <text x="1220" y="624" fill="#D9D0C3" font-size="24" font-family="Arial, sans-serif" font-weight="700">ESTACIONAMENTO</text>
  </g>
  <g opacity="0.9">
    <rect x="500" y="438" width="54" height="98" fill="#6F879C"/>
    <rect x="592" y="438" width="54" height="76" fill="#6F879C"/>
    <rect x="686" y="438" width="54" height="86" fill="#6F879C"/>
    <rect x="778" y="438" width="54" height="92" fill="#6F879C"/>
    <rect x="872" y="438" width="54" height="88" fill="#6F879C"/>
    <rect x="964" y="438" width="54" height="90" fill="#6F879C"/>
    <rect x="1056" y="438" width="54" height="98" fill="#6F879C"/>
  </g>
  <g opacity="0.36" fill="#A8C9D9">
    <rect x="514" y="450" width="18" height="76"/>
    <rect x="606" y="448" width="14" height="58"/>
    <rect x="698" y="448" width="14" height="66"/>
    <rect x="792" y="448" width="14" height="74"/>
    <rect x="884" y="448" width="14" height="66"/>
    <rect x="978" y="448" width="14" height="72"/>
    <rect x="1072" y="448" width="14" height="80"/>
  </g>
  <path d="M592 490H1032L978 582H646L592 490Z" fill="url(#awning)"/>
  <rect x="456" y="614" width="78" height="88" fill="#232A31"/>
  <rect x="560" y="614" width="78" height="88" fill="#232A31"/>
  <rect x="664" y="614" width="78" height="88" fill="#232A31"/>
  <rect x="768" y="614" width="78" height="88" fill="#232A31"/>
  <rect x="872" y="614" width="78" height="88" fill="#232A31"/>
  <rect x="976" y="614" width="78" height="88" fill="#232A31"/>
  <rect x="1080" y="614" width="78" height="88" fill="#232A31"/>
  <g fill="#4E6B56">
    <rect x="1130" y="758" width="360" height="116"/>
    <rect x="1182" y="690" width="248" height="72"/>
  </g>
  <g fill="#E4E7E8">
    <rect x="272" y="686" width="206" height="92"/>
    <rect x="292" y="734" width="166" height="22" fill="#AB362F"/>
    <rect x="338" y="702" width="44" height="48" fill="#2F6543"/>
  </g>
  <g fill="#201F22">
    <circle cx="326" cy="782" r="20"/>
    <circle cx="436" cy="782" r="20"/>
  </g>
  <text x="372" y="718" fill="#8F1E1E" font-size="24" font-family="Arial, sans-serif" font-weight="700">SAMU</text>
  <g>
    <circle cx="640" cy="640" r="12" fill="#573C29"/>
    <rect x="626" y="652" width="28" height="38" fill="#507652"/>
    <rect x="620" y="690" width="16" height="46" fill="#334A62"/>
    <rect x="644" y="690" width="16" height="46" fill="#334A62"/>
    <circle cx="734" cy="640" r="12" fill="#573C29"/>
    <rect x="720" y="652" width="28" height="42" fill="#6A563A"/>
    <rect x="714" y="694" width="16" height="46" fill="#7D633E"/>
    <rect x="738" y="694" width="16" height="46" fill="#7D633E"/>
    <circle cx="824" cy="640" r="12" fill="#573C29"/>
    <rect x="810" y="652" width="28" height="38" fill="#4B6F97"/>
    <rect x="804" y="690" width="16" height="46" fill="#486A48"/>
    <rect x="828" y="690" width="16" height="46" fill="#486A48"/>
    <circle cx="918" cy="640" r="12" fill="#573C29"/>
    <rect x="904" y="652" width="28" height="42" fill="#8B6B3F"/>
    <rect x="898" y="694" width="16" height="46" fill="#6D5835"/>
    <rect x="922" y="694" width="16" height="46" fill="#6D5835"/>
    <circle cx="1012" cy="640" r="12" fill="#573C29"/>
    <rect x="998" y="652" width="28" height="38" fill="#4A785F"/>
    <rect x="992" y="690" width="16" height="46" fill="#3D5678"/>
    <rect x="1016" y="690" width="16" height="46" fill="#3D5678"/>
  </g>
  <g opacity="0.95">
    <circle cx="1150" cy="640" r="13" fill="#523727"/>
    <rect x="1136" y="652" width="28" height="40" fill="#5B5248"/>
    <rect x="1134" y="694" width="14" height="46" fill="#303743"/>
    <rect x="1152" y="694" width="14" height="46" fill="#303743"/>
    <circle cx="1210" cy="640" r="13" fill="#523727"/>
    <rect x="1196" y="652" width="28" height="38" fill="#58745A"/>
    <rect x="1194" y="692" width="14" height="46" fill="#3D4F67"/>
    <rect x="1212" y="692" width="14" height="46" fill="#3D4F67"/>
    <circle cx="1184" cy="710" r="11" fill="#523727"/>
    <rect x="1172" y="720" width="24" height="34" fill="#314F74"/>
    <circle cx="1246" cy="710" r="11" fill="#523727"/>
    <rect x="1234" y="720" width="24" height="34" fill="#314F74"/>
  </g>
  <rect x="0" y="650" width="1600" height="390" fill="url(#glow)"/>
</svg>
